ffmpeg version git-2026-04-19-de18feb Copyright (c) 2000-2026 the FFmpeg developers
  built with gcc 9 (Ubuntu 9.4.0-1ubuntu1~20.04.2)
  configuration: --enable-shared --enable-gpl --enable-libx264
  libavutil      60. 30.100 / 60. 30.100
  libavcodec     62. 30.100 / 62. 30.100
  libavformat    62. 13.102 / 62. 13.102
  libavdevice    62.  4.100 / 62.  4.100
  libavfilter    11. 15.101 / 11. 15.101
  libswscale      9.  7.100 /  9.  7.100
  libswresample   6.  4.100 /  6.  4.100
[in#0/x11grab @ 0x556896b10c40] Stream #0: not enough frames to estimate rate; consider increasing probesize
Input #0, x11grab, from ':0.0+0,0':
  Duration: N/A, start: 1777445251.975981, bitrate: 3678192 kb/s
  Stream #0:0: Video: rawvideo (BGR[0] / 0x524742), bgr0, 2870x1602, 3678192 kb/s, 25 fps, 1000k tbr, 1000k tbn, start 1777445251.975981
Stream mapping:
  Stream #0:0 -> #0:0 (rawvideo (native) -> h264 (libx264))
[libx264 @ 0x556896b1ef00] using cpu capabilities: MMX2 SSE2Fast SSSE3 SSE4.2 AVX FMA3 BMI2 AVX2
[libx264 @ 0x556896b1ef00] profile High, level 5.0
[libx264 @ 0x556896b1ef00] 264 - core 155 r2917 0a84d98 - H.264/MPEG-4 AVC codec - Copyleft 2003-2018 - http://www.videolan.org/x264.html - options: cabac=1 ref=1 deblock=1:0:0 analyse=0x3:0x113 me=hex subme=2 psy=1 psy_rd=1.00:0.00 mixed_ref=0 me_range=16 chroma_me=1 trellis=0 8x8dct=1 cqm=0 deadzone=21,11 fast_pskip=1 chroma_qp_offset=0 threads=6 lookahead_threads=2 sliced_threads=0 nr=0 decimate=1 interlaced=0 bluray_compat=0 constrained_intra=0 bframes=3 b_pyramid=2 b_adapt=1 b_bias=0 direct=1 weightb=1 open_gop=0 weightp=1 keyint=250 keyint_min=25 scenecut=40 intra_refresh=0 rc_lookahead=10 rc=crf mbtree=1 crf=23.0 qcomp=0.60 qpmin=0 qpmax=69 qpstep=4 ip_ratio=1.40 aq=1:1.00
Output #0, matroska, to '/home/lmy/catkin_ws/recordings_tmp/exp_turncmp5_segment/screen.mkv':
  Metadata:
    encoder         : Lavf62.13.102
  Stream #0:0: Video: h264 (H264 / 0x34363248), yuv420p(tv, progressive), 2870x1602, q=2-31, 25 fps, 1k tbn
    Metadata:
      encoder         : Lavc62.30.100 libx264
    Side data:
      CPB properties: bitrate max/min/avg: 0/0/0 buffer size: 0 vbv_delay: N/A
frame=    0 fps=0.0 q=0.0 size=       0KiB time=N/A bitrate=N/A speed=N/A elapsed=0:00:00.50    frame=    6 fps=6.0 q=28.0 size=       1KiB time=00:00:00.16 bitrate=  29.7kbits/s speed=0.16x elapsed=0:00:01.00    frame=   18 fps= 12 q=28.0 size=       1KiB time=00:00:00.64 bitrate=   7.4kbits/s speed=0.426x elapsed=0:00:01.50    frame=   30 fps= 15 q=28.0 size=       1KiB time=00:00:01.12 bitrate=   4.2kbits/s speed=0.559x elapsed=0:00:02.00    frame=   43 fps= 17 q=28.0 size=       1KiB time=00:00:01.64 bitrate=   2.9kbits/s speed=0.655x elapsed=0:00:02.50    frame=   56 fps= 19 q=28.0 size=       1KiB time=00:00:02.16 bitrate=   2.2kbits/s speed=0.719x elapsed=0:00:03.00    frame=   68 fps= 19 q=28.0 size=       1KiB time=00:00:02.64 bitrate=   1.8kbits/s speed=0.753x elapsed=0:00:03.50    frame=   80 fps= 20 q=28.0 size=       1KiB time=00:00:03.12 bitrate=   1.5kbits/s speed=0.779x elapsed=0:00:04.00    frame=   93 fps= 21 q=28.0 size=       1KiB time=00:00:03.64 bitrate=   1.3kbits/s speed=0.807x elapsed=0:00:04.50    frame=  106 fps= 21 q=28.0 size=       1KiB time=00:00:04.16 bitrate=   1.1kbits/s speed=0.83x elapsed=0:00:05.00    frame=  118 fps= 21 q=28.0 size=       1KiB time=00:00:04.64 bitrate=   1.0kbits/s speed=0.842x elapsed=0:00:05.51    frame=  131 fps= 22 q=28.0 size=     155KiB time=00:00:05.16 bitrate= 246.8kbits/s speed=0.859x elapsed=0:00:06.01    frame=  143 fps= 22 q=28.0 size=     155KiB time=00:00:05.64 bitrate= 225.8kbits/s speed=0.866x elapsed=0:00:06.51    frame=  156 fps= 22 q=28.0 size=     155KiB time=00:00:06.16 bitrate= 206.7kbits/s speed=0.879x elapsed=0:00:07.01    frame=  168 fps= 22 q=28.0 size=     155KiB time=00:00:06.64 bitrate= 191.8kbits/s speed=0.884x elapsed=0:00:07.51    frame=  181 fps= 23 q=28.0 size=     155KiB time=00:00:07.16 bitrate= 177.8kbits/s speed=0.894x elapsed=0:00:08.01    frame=  193 fps= 23 q=28.0 size=     155KiB time=00:00:07.64 bitrate= 166.7kbits/s speed=0.898x elapsed=0:00:08.51    frame=  206 fps= 23 q=28.0 size=     155KiB time=00:00:08.16 bitrate= 156.0kbits/s speed=0.905x elapsed=0:00:09.01    frame=  218 fps= 23 q=28.0 size=     155KiB time=00:00:08.64 bitrate= 147.4kbits/s speed=0.908x elapsed=0:00:09.51    frame=  231 fps= 23 q=28.0 size=     155KiB time=00:00:09.16 bitrate= 139.0kbits/s speed=0.915x elapsed=0:00:10.01    frame=  243 fps= 23 q=28.0 size=     155KiB time=00:00:09.64 bitrate= 132.1kbits/s speed=0.917x elapsed=0:00:10.51    frame=  256 fps= 23 q=28.0 size=     256KiB time=00:00:10.16 bitrate= 206.4kbits/s speed=0.922x elapsed=0:00:11.01    frame=  268 fps= 23 q=28.0 size=     256KiB time=00:00:10.64 bitrate= 197.1kbits/s speed=0.924x elapsed=0:00:11.51    frame=  281 fps= 23 q=28.0 size=     256KiB time=00:00:11.16 bitrate= 187.9kbits/s speed=0.929x elapsed=0:00:12.01    frame=  293 fps= 23 q=28.0 size=     256KiB time=00:00:11.64 bitrate= 180.2kbits/s speed=0.93x elapsed=0:00:12.51    frame=  306 fps= 24 q=28.0 size=     256KiB time=00:00:12.16 bitrate= 172.5kbits/s speed=0.934x elapsed=0:00:13.01    frame=  318 fps= 24 q=28.0 size=     256KiB time=00:00:12.68 bitrate= 165.4kbits/s speed=0.938x elapsed=0:00:13.51    frame=  331 fps= 24 q=28.0 size=     256KiB time=00:00:13.16 bitrate= 159.4kbits/s speed=0.939x elapsed=0:00:14.02    frame=  343 fps= 24 q=28.0 size=     256KiB time=00:00:13.64 bitrate= 153.8kbits/s speed=0.939x elapsed=0:00:14.52    frame=  356 fps= 24 q=28.0 size=     256KiB time=00:00:14.16 bitrate= 148.1kbits/s speed=0.943x elapsed=0:00:15.02    frame=  369 fps= 24 q=28.0 size=     256KiB time=00:00:14.68 bitrate= 142.9kbits/s speed=0.946x elapsed=0:00:15.52    frame=  381 fps= 24 q=28.0 size=     512KiB time=00:00:15.16 bitrate= 276.7kbits/s speed=0.946x elapsed=0:00:16.02    frame=  394 fps= 24 q=28.0 size=     512KiB time=00:00:15.68 bitrate= 267.5kbits/s speed=0.949x elapsed=0:00:16.52    frame=  406 fps= 24 q=28.0 size=     512KiB time=00:00:16.16 bitrate= 259.5kbits/s speed=0.949x elapsed=0:00:17.02    frame=  419 fps= 24 q=28.0 size=     512KiB time=00:00:16.68 bitrate= 251.5kbits/s speed=0.952x elapsed=0:00:17.52    frame=  431 fps= 24 q=28.0 size=     512KiB time=00:00:17.16 bitrate= 244.4kbits/s speed=0.952x elapsed=0:00:18.02    frame=  444 fps= 24 q=28.0 size=     512KiB time=00:00:17.68 bitrate= 237.2kbits/s speed=0.954x elapsed=0:00:18.52    frame=  456 fps= 24 q=28.0 size=     512KiB time=00:00:18.16 bitrate= 231.0kbits/s speed=0.954x elapsed=0:00:19.03    frame=  469 fps= 24 q=28.0 size=     512KiB time=00:00:18.68 bitrate= 224.5kbits/s speed=0.956x elapsed=0:00:19.53    frame=  482 fps= 24 q=28.0 size=     512KiB time=00:00:19.20 bitrate= 218.5kbits/s speed=0.958x elapsed=0:00:20.03    frame=  494 fps= 24 q=28.0 size=     512KiB time=00:00:19.68 bitrate= 213.1kbits/s speed=0.958x elapsed=0:00:20.53    frame=  507 fps= 24 q=28.0 size=     512KiB time=00:00:20.20 bitrate= 207.6kbits/s speed=0.96x elapsed=0:00:21.04    frame=  519 fps= 24 q=28.0 size=     512KiB time=00:00:20.68 bitrate= 202.8kbits/s speed=0.96x elapsed=0:00:21.54    frame=  532 fps= 24 q=28.0 size=     512KiB time=00:00:21.20 bitrate= 197.8kbits/s speed=0.962x elapsed=0:00:22.04    frame=  544 fps= 24 q=28.0 size=     512KiB time=00:00:21.68 bitrate= 193.5kbits/s speed=0.962x elapsed=0:00:22.54    frame=  557 fps= 24 q=28.0 size=     512KiB time=00:00:22.20 bitrate= 188.9kbits/s speed=0.963x elapsed=0:00:23.04    frame=  569 fps= 24 q=28.0 size=     512KiB time=00:00:22.68 bitrate= 184.9kbits/s speed=0.963x elapsed=0:00:23.55    frame=  582 fps= 24 q=28.0 size=     512KiB time=00:00:23.20 bitrate= 180.8kbits/s speed=0.965x elapsed=0:00:24.05    frame=  594 fps= 24 q=28.0 size=     512KiB time=00:00:23.68 bitrate= 177.1kbits/s speed=0.965x elapsed=0:00:24.55    frame=  607 fps= 24 q=28.0 size=     512KiB time=00:00:24.20 bitrate= 173.3kbits/s speed=0.966x elapsed=0:00:25.05    frame=  619 fps= 24 q=28.0 size=     512KiB time=00:00:24.68 bitrate= 169.9kbits/s speed=0.966x elapsed=0:00:25.55    frame=  632 fps= 24 q=28.0 size=     768KiB time=00:00:25.20 bitrate= 249.7kbits/s speed=0.967x elapsed=0:00:26.05    frame=  645 fps= 24 q=28.0 size=     768KiB time=00:00:25.72 bitrate= 244.6kbits/s speed=0.969x elapsed=0:00:26.55    frame=  657 fps= 24 q=28.0 size=     768KiB time=00:00:26.20 bitrate= 240.1kbits/s speed=0.968x elapsed=0:00:27.05    frame=  669 fps= 24 q=28.0 size=     768KiB time=00:00:26.72 bitrate= 235.5kbits/s speed=0.97x elapsed=0:00:27.55    frame=  682 fps= 24 q=28.0 size=     768KiB time=00:00:27.20 bitrate= 231.3kbits/s speed=0.969x elapsed=0:00:28.05    frame=  695 fps= 24 q=28.0 size=     768KiB time=00:00:27.72 bitrate= 227.0kbits/s speed=0.971x elapsed=0:00:28.56    frame=  707 fps= 24 q=28.0 size=     768KiB time=00:00:28.20 bitrate= 223.1kbits/s speed=0.97x elapsed=0:00:29.06    frame=  720 fps= 24 q=28.0 size=     768KiB time=00:00:28.72 bitrate= 219.1kbits/s speed=0.971x elapsed=0:00:29.56    frame=  732 fps= 24 q=28.0 size=     768KiB time=00:00:29.20 bitrate= 215.5kbits/s speed=0.971x elapsed=0:00:30.06    frame=  745 fps= 24 q=28.0 size=     768KiB time=00:00:29.72 bitrate= 211.7kbits/s speed=0.972x elapsed=0:00:30.56    frame=  757 fps= 24 q=28.0 size=     768KiB time=00:00:30.20 bitrate= 208.3kbits/s speed=0.972x elapsed=0:00:31.06    frame=  770 fps= 24 q=28.0 size=     768KiB time=00:00:30.72 bitrate= 204.8kbits/s speed=0.973x elapsed=0:00:31.56    frame=  782 fps= 24 q=28.0 size=     768KiB time=00:00:31.20 bitrate= 201.6kbits/s speed=0.973x elapsed=0:00:32.06    frame=  795 fps= 24 q=28.0 size=     768KiB time=00:00:31.72 bitrate= 198.3kbits/s speed=0.974x elapsed=0:00:32.57    frame=  807 fps= 24 q=28.0 size=     768KiB time=00:00:32.20 bitrate= 195.4kbits/s speed=0.974x elapsed=0:00:33.07    frame=  820 fps= 24 q=28.0 size=     768KiB time=00:00:32.72 bitrate= 192.3kbits/s speed=0.975x elapsed=0:00:33.57    frame=  832 fps= 24 q=28.0 size=     768KiB time=00:00:33.20 bitrate= 189.5kbits/s speed=0.974x elapsed=0:00:34.07    frame=  845 fps= 24 q=28.0 size=     768KiB time=00:00:33.72 bitrate= 186.6kbits/s speed=0.975x elapsed=0:00:34.57    frame=  857 fps= 24 q=28.0 size=     768KiB time=00:00:34.20 bitrate= 184.0kbits/s speed=0.975x elapsed=0:00:35.07    frame=  870 fps= 24 q=28.0 size=     768KiB time=00:00:34.72 bitrate= 181.2kbits/s speed=0.976x elapsed=0:00:35.57    frame=  883 fps= 24 q=28.0 size=    1024KiB time=00:00:35.24 bitrate= 238.0kbits/s speed=0.977x elapsed=0:00:36.07    frame=  895 fps= 24 q=28.0 size=    1024KiB time=00:00:35.72 bitrate= 234.8kbits/s speed=0.977x elapsed=0:00:36.57    [out#0/matroska @ 0x556896b1d500] video:1230KiB audio:0KiB subtitle:0KiB other streams:0KiB global headers:0KiB muxing overhead: 0.580579%
frame=  928 fps= 25 q=-1.0 Lsize=    1237KiB time=00:00:37.04 bitrate= 273.7kbits/s speed=0.994x elapsed=0:00:37.26    
[libx264 @ 0x556896b1ef00] frame I:4     Avg QP:12.15  size:115346
[libx264 @ 0x556896b1ef00] frame P:234   Avg QP:16.50  size:  1835
[libx264 @ 0x556896b1ef00] frame B:690   Avg QP:23.25  size:   534
[libx264 @ 0x556896b1ef00] consecutive B-frames:  0.9%  0.0%  0.0% 99.1%
[libx264 @ 0x556896b1ef00] mb I  I16..4: 89.0%  1.9%  9.2%
[libx264 @ 0x556896b1ef00] mb P  I16..4:  0.3%  0.1%  0.0%  P16..4:  0.3%  0.2%  0.1%  0.0%  0.0%    skip:99.0%
[libx264 @ 0x556896b1ef00] mb B  I16..4:  0.0%  0.0%  0.0%  B16..8:  0.3%  0.1%  0.0%  direct: 0.1%  skip:99.5%  L0:46.1% L1:46.3% BI: 7.6%
[libx264 @ 0x556896b1ef00] 8x8 transform intra:4.7% inter:1.8%
[libx264 @ 0x556896b1ef00] coded y,uvDC,uvAC intra: 14.3% 21.3% 17.0% inter: 0.1% 0.1% 0.0%
[libx264 @ 0x556896b1ef00] i16 v,h,dc,p: 70% 28%  2%  0%
[libx264 @ 0x556896b1ef00] i8 v,h,dc,ddl,ddr,vr,hd,vl,hu: 11% 15% 70%  1%  1%  2%  0%  0%  0%
[libx264 @ 0x556896b1ef00] i4 v,h,dc,ddl,ddr,vr,hd,vl,hu: 32% 27% 22%  3%  2%  5%  2%  4%  2%
[libx264 @ 0x556896b1ef00] i8c dc,h,v,p: 61% 30%  9%  0%
[libx264 @ 0x556896b1ef00] Weighted P-Frames: Y:0.0% UV:0.0%
[libx264 @ 0x556896b1ef00] kb/s:271.36
Exiting normally, received signal 2.
